<?xml version="1.0" encoding="UTF-8"?>
<svg width="67px" height="77px" viewBox="0 0 67 77" version="1.1" xmlns="http://www.w3.org/2000/svg" xmlns:xlink="http://www.w3.org/1999/xlink">
    <!-- Generator: Sketch 41 (35326) - http://www.bohemiancoding.com/sketch -->
    <title>Group 2</title>
    <desc>Created with Sketch.</desc>
    <defs></defs>
    <g id="Page-1" stroke="none" stroke-width="1" fill="none" fill-rule="evenodd">
        <g id="API-landing-Copy" transform="translate(-753.000000, -224.000000)">
            <g id="Dropdown-2-Copy" transform="translate(390.000000, 58.000000)">
                <g id="Referral" transform="translate(340.000000, 143.000000)">
                    <g id="Group-2" transform="translate(23.000000, 23.000000)">
                        <path d="M62.0631579,74.0384615 L5.91077694,74.0384615 C4.28531328,74.0384615 2.95538847,72.7057692 2.95538847,71.0769231 L2.95538847,32.5769231 L62.0631579,32.5769231 L62.0631579,74.0384615 L62.0631579,74.0384615 Z" id="Shape" fill="#E1E1E6"></path>
                        <path d="M62.0631579,38.5 L4.43308271,38.5 C3.54646617,38.5 2.95538847,37.9076923 2.95538847,37.0192308 L2.95538847,32.5769231 L62.0631579,32.5769231 L62.0631579,38.5 L62.0631579,38.5 Z M62.0631579,74.0384615 L5.91077694,74.0384615 C4.28531328,74.0384615 2.95538847,72.7057692 2.95538847,71.0769231 L2.95538847,68.1153846 L62.0631579,68.1153846 L62.0631579,74.0384615 L62.0631579,74.0384615 Z" id="Shape" fill="#C4C9D3"></path>
                        <path d="M59.1077694,35.5384615 L59.1077694,71.0769231 L5.91077694,71.0769231 L5.91077694,35.5384615 L59.1077694,35.5384615 L59.1077694,35.5384615 Z M62.0631579,32.5769231 L2.95538847,32.5769231 L2.95538847,71.0769231 C2.95538847,72.7057692 4.28531328,74.0384615 5.91077694,74.0384615 L62.0631579,74.0384615 L62.0631579,32.5769231 L62.0631579,32.5769231 Z" id="Shape" fill="#464C63"></path>
                        <path d="M63.5408521,34.0576923 L1.47769424,34.0576923 C0.591077694,34.0576923 0,33.4653846 0,32.5769231 L0,23.6923077 C0,20.4346154 2.65984962,17.7692308 5.91077694,17.7692308 L59.1077694,17.7692308 C62.3586967,17.7692308 65.0185464,20.4346154 65.0185464,23.6923077 L65.0185464,32.5769231 C65.0185464,33.4653846 64.4274687,34.0576923 63.5408521,34.0576923 L63.5408521,34.0576923 Z" id="Shape" fill="#FFFFFF"></path>
                        <path d="M63.5408521,34.0576923 L1.47769424,34.0576923 C0.591077694,34.0576923 0,33.4653846 0,32.5769231 L0,28.1346154 C0,24.8769231 2.65984962,22.2115385 5.91077694,22.2115385 L59.1077694,22.2115385 C62.3586967,22.2115385 65.0185464,24.8769231 65.0185464,28.1346154 L65.0185464,32.5769231 C65.0185464,33.4653846 64.4274687,34.0576923 63.5408521,34.0576923 L63.5408521,34.0576923 Z" id="Shape" fill="#E1E1E6"></path>
                        <path d="M59.1077694,20.7307692 C60.7332331,20.7307692 62.0631579,22.0634615 62.0631579,23.6923077 L62.0631579,32.5769231 L2.95538847,32.5769231 L2.95538847,23.6923077 C2.95538847,22.0634615 4.28531328,20.7307692 5.91077694,20.7307692 L59.1077694,20.7307692 L59.1077694,20.7307692 Z M59.1077694,17.7692308 L5.91077694,17.7692308 C2.65984962,17.7692308 0,20.4346154 0,23.6923077 L0,34.0576923 C0,34.9461538 0.591077694,35.5384615 1.47769424,35.5384615 L63.5408521,35.5384615 C64.4274687,35.5384615 65.0185464,34.9461538 65.0185464,34.0576923 L65.0185464,23.6923077 C65.0185464,20.4346154 62.3586967,17.7692308 59.1077694,17.7692308 L59.1077694,17.7692308 Z" id="Shape" fill="#464C63"></path>
                        <polygon id="Shape" fill="#24B46C" points="23.6431078 17.7692308 41.3754386 17.7692308 41.3754386 35.5384615 23.6431078 35.5384615"></polygon>
                        <polygon id="Shape" fill="#239D60" points="25.120802 22.2115385 39.8977444 22.2115385 39.8977444 34.0576923 25.120802 34.0576923"></polygon>
                        <path d="M38.4200501,20.7307692 L38.4200501,32.5769231 L26.5984962,32.5769231 L26.5984962,20.7307692 L38.4200501,20.7307692 L38.4200501,20.7307692 Z M41.3754386,17.7692308 L23.6431078,17.7692308 L23.6431078,35.5384615 L41.3754386,35.5384615 L41.3754386,17.7692308 L41.3754386,17.7692308 Z" id="Shape" fill="#464C63"></path>
                        <polygon id="Shape" fill="#239D60" points="23.6431078 34.0576923 41.3754386 34.0576923 41.3754386 74.0384615 23.6431078 74.0384615"></polygon>
                        <polyline id="Shape" fill="#1E8552" points="23.6431078 34.0576923 41.3754386 34.0576923 41.3754386 38.5 23.6431078 38.5"></polyline>
                        <polygon id="Shape" fill="#1F8552" points="23.6431078 68.1153846 41.3754386 68.1153846 41.3754386 74.0384615 23.6431078 74.0384615"></polygon>
                        <path d="M38.4200501,35.5384615 L38.4200501,71.0769231 L26.5984962,71.0769231 L26.5984962,35.5384615 L38.4200501,35.5384615 L38.4200501,35.5384615 Z M41.3754386,32.5769231 L23.6431078,32.5769231 L23.6431078,74.0384615 L41.3754386,74.0384615 L41.3754386,32.5769231 L41.3754386,32.5769231 Z" id="Shape" fill="#464C63"></path>
                        <path d="M39.8977444,20.7307692 L39.8977444,13.3269231 C39.8977444,10.8096154 37.9767419,8.88461538 35.4646617,8.88461538 L29.5538847,8.88461538 C27.0418045,8.88461538 25.120802,10.8096154 25.120802,13.3269231 L25.120802,20.7307692 L39.8977444,20.7307692 L39.8977444,20.7307692 Z" id="Shape" fill="#23B46C"></path>
                        <path d="M39.8977444,20.7307692 L39.8977444,19.25 C39.8977444,16.7326923 37.9767419,14.8076923 35.4646617,14.8076923 L29.5538847,14.8076923 C27.0418045,14.8076923 25.120802,16.7326923 25.120802,19.25 L25.120802,20.7307692 L39.8977444,20.7307692 L39.8977444,20.7307692 Z" id="Shape" fill="#239D60"></path>
                        <path d="M35.4646617,11.8461538 C36.3512782,11.8461538 36.9423559,12.4384615 36.9423559,13.3269231 L36.9423559,17.7692308 L28.0761905,17.7692308 L28.0761905,13.3269231 C28.0761905,12.4384615 28.6672682,11.8461538 29.5538847,11.8461538 L35.4646617,11.8461538 L35.4646617,11.8461538 Z M35.4646617,8.88461538 L29.5538847,8.88461538 C27.0418045,8.88461538 25.120802,10.8096154 25.120802,13.3269231 L25.120802,20.7307692 L39.8977444,20.7307692 L39.8977444,13.3269231 C39.8977444,10.8096154 37.9767419,8.88461538 35.4646617,8.88461538 L35.4646617,8.88461538 Z" id="Shape" fill="#464C63"></path>
                        <path d="M53.1969925,1.48076923 C44.3308271,1.48076923 37.0901253,8.29230769 37.0901253,16.5846154 L37.0901253,20.7307692 L56.152381,20.7307692 L56.152381,4.44230769 C56.152381,3.70192308 55.4135338,1.48076923 54.5269173,1.48076923 L53.1969925,1.48076923 L53.1969925,1.48076923 Z" id="Shape" fill="#24B46C"></path>
                        <path d="M54.6746867,5.92307692 C45.6607519,5.92307692 36.9423559,13.1788462 36.9423559,20.7307692 L56.152381,20.7307692 L56.152381,7.40384615 C56.152381,6.66346154 54.6746867,5.92307692 54.6746867,5.92307692 L54.6746867,5.92307692 Z" id="Shape" fill="#239D60"></path>
                        <path d="M11.8215539,1.48076923 C20.6877193,1.48076923 27.9284211,8.29230769 27.9284211,16.5846154 L27.9284211,20.7307692 L8.86616541,20.7307692 L8.86616541,5.92307692 C8.86616541,3.70192308 9.45724311,1.48076923 11.8215539,1.48076923 L11.8215539,1.48076923 Z" id="Shape" fill="#24B46C"></path>
                        <path d="M10.3438596,5.92307692 C19.3577945,5.92307692 28.0761905,13.1788462 28.0761905,20.7307692 L8.86616541,20.7307692 L8.86616541,7.40384615 C8.86616541,6.66346154 10.3438596,5.92307692 10.3438596,5.92307692 L10.3438596,5.92307692 Z" id="Shape" fill="#239D60"></path>
                        <path d="M36.9423559,16.2884615 L57.6300752,16.2884615 L57.6300752,20.7307692 L36.9423559,20.7307692 L36.9423559,16.2884615 Z M7.38847118,16.2884615 L28.0761905,16.2884615 L28.0761905,20.7307692 L7.38847118,20.7307692 L7.38847118,16.2884615 Z" id="Shape" fill="#1F8552"></path>
                        <path d="M13.2992481,2.96153846 C19.8011028,2.96153846 25.120802,8.29230769 25.120802,14.8076923 L25.120802,17.7692308 L10.3438596,17.7692308 L10.3438596,5.92307692 C10.3438596,4.29423077 11.6737845,2.96153846 13.2992481,2.96153846 L13.2992481,2.96153846 Z M13.2992481,0 C10.0483208,0 7.38847118,2.66538462 7.38847118,5.92307692 L7.38847118,20.7307692 L28.0761905,20.7307692 L28.0761905,14.8076923 C28.0761905,6.66346154 21.4265664,0 13.2992481,0 L13.2992481,0 Z M53.1969925,2.96153846 C54.083609,2.96153846 54.6746867,3.55384615 54.6746867,4.44230769 L54.6746867,17.7692308 L39.8977444,17.7692308 L39.8977444,16.2884615 C39.8977444,8.88461538 45.8085213,2.96153846 53.1969925,2.96153846 L53.1969925,2.96153846 Z M53.1969925,0 C44.1830576,0 36.9423559,7.25576923 36.9423559,16.2884615 L36.9423559,20.7307692 L57.6300752,20.7307692 L57.6300752,4.44230769 C57.6300752,1.925 55.7090727,0 53.1969925,0 L53.1969925,0 Z" id="Shape" fill="#464C63"></path>
                        <path d="M62.3586967,72.5576923 L49.6505263,72.5576923 C48.3206015,72.5576923 47.2862155,71.5211538 47.2862155,70.1884615 L47.2862155,69.0038462 C47.2862155,67.6711538 48.3206015,66.6346154 49.6505263,66.6346154 L62.3586967,66.6346154 C63.6886216,66.6346154 64.7230075,67.6711538 64.7230075,69.0038462 L64.7230075,70.1884615 C64.7230075,71.5211538 63.6886216,72.5576923 62.3586967,72.5576923 L62.3586967,72.5576923 Z" id="Shape" fill="#FFE2A9"></path>
                        <path d="M64.2796992,72.5576923 L47.7295238,72.5576923 C47.433985,72.5576923 47.2862155,72.2615385 47.2862155,72.1134615 L47.2862155,70.1884615 C47.2862155,69.8923077 47.5817544,69.7442308 47.7295238,69.7442308 L64.1319298,69.7442308 C64.4274687,69.7442308 64.5752381,70.0403846 64.5752381,70.1884615 L64.5752381,72.1134615 C64.7230075,72.2615385 64.5752381,72.5576923 64.2796992,72.5576923 L64.2796992,72.5576923 Z M62.3586967,66.6346154 L49.6505263,66.6346154 C48.3206015,66.6346154 47.2862155,65.5980769 47.2862155,64.2653846 L47.2862155,63.0807692 C47.2862155,61.7480769 48.3206015,60.7115385 49.6505263,60.7115385 L62.3586967,60.7115385 C63.6886216,60.7115385 64.7230075,61.7480769 64.7230075,63.0807692 L64.7230075,64.2653846 C64.7230075,65.5980769 63.6886216,66.6346154 62.3586967,66.6346154 L62.3586967,66.6346154 Z M62.3586967,60.7115385 L49.6505263,60.7115385 C48.3206015,60.7115385 47.2862155,59.675 47.2862155,58.3423077 L47.2862155,57.1576923 C47.2862155,55.825 48.3206015,54.7884615 49.6505263,54.7884615 L62.3586967,54.7884615 C63.6886216,54.7884615 64.7230075,55.825 64.7230075,57.1576923 L64.7230075,58.3423077 C64.7230075,59.675 63.6886216,60.7115385 62.3586967,60.7115385 L62.3586967,60.7115385 Z" id="Shape" fill="#FDBE6A"></path>
                        <path d="M64.2796992,63.6730769 L47.7295238,63.6730769 C47.433985,63.6730769 47.2862155,63.3769231 47.2862155,63.2288462 L47.2862155,61.3038462 C47.2862155,61.0076923 47.5817544,60.8596154 47.7295238,60.8596154 L64.1319298,60.8596154 C64.4274687,60.8596154 64.5752381,61.1557692 64.5752381,61.3038462 L64.5752381,63.2288462 C64.7230075,63.3769231 64.5752381,63.6730769 64.2796992,63.6730769 L64.2796992,63.6730769 Z M64.2796992,57.75 L47.7295238,57.75 C47.433985,57.75 47.2862155,57.4538462 47.2862155,57.3057692 L47.2862155,55.3807692 C47.2862155,55.0846154 47.5817544,54.9365385 47.7295238,54.9365385 L64.1319298,54.9365385 C64.4274687,54.9365385 64.5752381,55.2326923 64.5752381,55.3807692 L64.5752381,57.3057692 C64.7230075,57.6019231 64.5752381,57.75 64.2796992,57.75 L64.2796992,57.75 Z" id="Shape" fill="#FFE2A9"></path>
                        <path d="M62.802005,68.1153846 C63.2453133,68.1153846 63.5408521,68.4115385 63.5408521,68.8557692 L63.5408521,70.3365385 C63.5408521,70.7807692 63.2453133,71.0769231 62.802005,71.0769231 L49.5027569,71.0769231 C49.0594486,71.0769231 48.7639098,70.7807692 48.7639098,70.3365385 L48.7639098,68.8557692 C48.7639098,68.4115385 49.0594486,68.1153846 49.5027569,68.1153846 L62.802005,68.1153846 L62.802005,68.1153846 Z M62.802005,65.1538462 L49.5027569,65.1538462 C47.433985,65.1538462 45.8085213,66.7826923 45.8085213,68.8557692 L45.8085213,70.3365385 C45.8085213,72.4096154 47.433985,74.0384615 49.5027569,74.0384615 L62.802005,74.0384615 C64.8707769,74.0384615 66.4962406,72.4096154 66.4962406,70.3365385 L66.4962406,68.8557692 C66.4962406,66.7826923 64.8707769,65.1538462 62.802005,65.1538462 L62.802005,65.1538462 Z" id="Shape" fill="#464C63"></path>
                        <path d="M62.802005,62.1923077 C63.2453133,62.1923077 63.5408521,62.4884615 63.5408521,62.9326923 L63.5408521,64.4134615 C63.5408521,64.8576923 63.2453133,65.1538462 62.802005,65.1538462 L49.5027569,65.1538462 C49.0594486,65.1538462 48.7639098,64.8576923 48.7639098,64.4134615 L48.7639098,62.9326923 C48.7639098,62.4884615 49.0594486,62.1923077 49.5027569,62.1923077 L62.802005,62.1923077 L62.802005,62.1923077 Z M62.802005,59.2307692 L49.5027569,59.2307692 C47.433985,59.2307692 45.8085213,60.8596154 45.8085213,62.9326923 L45.8085213,64.4134615 C45.8085213,66.4865385 47.433985,68.1153846 49.5027569,68.1153846 L62.802005,68.1153846 C64.8707769,68.1153846 66.4962406,66.4865385 66.4962406,64.4134615 L66.4962406,62.9326923 C66.4962406,60.8596154 64.8707769,59.2307692 62.802005,59.2307692 L62.802005,59.2307692 Z" id="Shape" fill="#464C63"></path>
                        <path d="M62.802005,56.2692308 C63.2453133,56.2692308 63.5408521,56.5653846 63.5408521,57.0096154 L63.5408521,58.4903846 C63.5408521,58.9346154 63.2453133,59.2307692 62.802005,59.2307692 L49.5027569,59.2307692 C49.0594486,59.2307692 48.7639098,58.9346154 48.7639098,58.4903846 L48.7639098,57.0096154 C48.7639098,56.5653846 49.0594486,56.2692308 49.5027569,56.2692308 L62.802005,56.2692308 L62.802005,56.2692308 Z M62.802005,53.3076923 L49.5027569,53.3076923 C47.433985,53.3076923 45.8085213,54.9365385 45.8085213,57.0096154 L45.8085213,58.4903846 C45.8085213,60.5634615 47.433985,62.1923077 49.5027569,62.1923077 L62.802005,62.1923077 C64.8707769,62.1923077 66.4962406,60.5634615 66.4962406,58.4903846 L66.4962406,57.0096154 C66.4962406,54.9365385 64.8707769,53.3076923 62.802005,53.3076923 L62.802005,53.3076923 Z" id="Shape" fill="#464C63"></path>
                        <path d="M62.3586967,54.7884615 L49.6505263,54.7884615 C48.3206015,54.7884615 47.2862155,53.7519231 47.2862155,52.4192308 L47.2862155,51.2346154 C47.2862155,49.9019231 48.3206015,48.8653846 49.6505263,48.8653846 L62.3586967,48.8653846 C63.6886216,48.8653846 64.7230075,49.9019231 64.7230075,51.2346154 L64.7230075,52.4192308 C64.7230075,53.7519231 63.6886216,54.7884615 62.3586967,54.7884615 L62.3586967,54.7884615 Z M62.3586967,48.8653846 L49.6505263,48.8653846 C48.3206015,48.8653846 47.2862155,47.8288462 47.2862155,46.4961538 L47.2862155,45.3115385 C47.2862155,43.9788462 48.3206015,42.9423077 49.6505263,42.9423077 L62.3586967,42.9423077 C63.6886216,42.9423077 64.7230075,43.9788462 64.7230075,45.3115385 L64.7230075,46.4961538 C64.7230075,47.8288462 63.6886216,48.8653846 62.3586967,48.8653846 L62.3586967,48.8653846 Z" id="Shape" fill="#FDBE6A"></path>
                        <path d="M64.2796992,51.8269231 L47.7295238,51.8269231 C47.433985,51.8269231 47.2862155,51.5307692 47.2862155,51.3826923 L47.2862155,49.4576923 C47.2862155,49.1615385 47.5817544,49.0134615 47.7295238,49.0134615 L64.1319298,49.0134615 C64.4274687,49.0134615 64.5752381,49.3096154 64.5752381,49.4576923 L64.5752381,51.3826923 C64.7230075,51.6788462 64.5752381,51.8269231 64.2796992,51.8269231 L64.2796992,51.8269231 Z M64.2796992,45.9038462 L47.7295238,45.9038462 C47.433985,45.9038462 47.2862155,45.6076923 47.2862155,45.4596154 L47.2862155,43.5346154 C47.2862155,43.2384615 47.5817544,43.0903846 47.7295238,43.0903846 L64.1319298,43.0903846 C64.4274687,43.0903846 64.5752381,43.3865385 64.5752381,43.5346154 L64.5752381,45.4596154 C64.7230075,45.6076923 64.5752381,45.9038462 64.2796992,45.9038462 L64.2796992,45.9038462 Z" id="Shape" fill="#FFE2A9"></path>
                        <path d="M62.802005,50.3461538 C63.2453133,50.3461538 63.5408521,50.6423077 63.5408521,51.0865385 L63.5408521,52.5673077 C63.5408521,53.0115385 63.2453133,53.3076923 62.802005,53.3076923 L49.5027569,53.3076923 C49.0594486,53.3076923 48.7639098,53.0115385 48.7639098,52.5673077 L48.7639098,51.0865385 C48.7639098,50.6423077 49.0594486,50.3461538 49.5027569,50.3461538 L62.802005,50.3461538 L62.802005,50.3461538 Z M62.802005,47.3846154 L49.5027569,47.3846154 C47.433985,47.3846154 45.8085213,49.0134615 45.8085213,51.0865385 L45.8085213,52.5673077 C45.8085213,54.6403846 47.433985,56.2692308 49.5027569,56.2692308 L62.802005,56.2692308 C64.8707769,56.2692308 66.4962406,54.6403846 66.4962406,52.5673077 L66.4962406,51.0865385 C66.4962406,49.0134615 64.8707769,47.3846154 62.802005,47.3846154 L62.802005,47.3846154 Z" id="Shape" fill="#464C63"></path>
                        <path d="M62.802005,44.4230769 C63.2453133,44.4230769 63.5408521,44.7192308 63.5408521,45.1634615 L63.5408521,46.6442308 C63.5408521,47.0884615 63.2453133,47.3846154 62.802005,47.3846154 L49.5027569,47.3846154 C49.0594486,47.3846154 48.7639098,47.0884615 48.7639098,46.6442308 L48.7639098,45.1634615 C48.7639098,44.7192308 49.0594486,44.4230769 49.5027569,44.4230769 L62.802005,44.4230769 L62.802005,44.4230769 Z M62.802005,41.4615385 L49.5027569,41.4615385 C47.433985,41.4615385 45.8085213,43.0903846 45.8085213,45.1634615 L45.8085213,46.6442308 C45.8085213,48.7173077 47.433985,50.3461538 49.5027569,50.3461538 L62.802005,50.3461538 C64.8707769,50.3461538 66.4962406,48.7173077 66.4962406,46.6442308 L66.4962406,45.1634615 C66.4962406,43.0903846 64.8707769,41.4615385 62.802005,41.4615385 L62.802005,41.4615385 Z" id="Shape" fill="#464C63"></path>
                        <path d="M51.8670677,74.0384615 L39.1588972,74.0384615 C37.8289724,74.0384615 36.7945865,73.0019231 36.7945865,71.6692308 L36.7945865,70.4846154 C36.7945865,69.1519231 37.8289724,68.1153846 39.1588972,68.1153846 L51.8670677,68.1153846 C53.1969925,68.1153846 54.2313784,69.1519231 54.2313784,70.4846154 L54.2313784,71.6692308 C54.3791479,73.0019231 53.1969925,74.0384615 51.8670677,74.0384615 L51.8670677,74.0384615 Z M51.8670677,68.1153846 L39.1588972,68.1153846 C37.8289724,68.1153846 36.7945865,67.0788462 36.7945865,65.7461538 L36.7945865,64.5615385 C36.7945865,63.2288462 37.8289724,62.1923077 39.1588972,62.1923077 L51.8670677,62.1923077 C53.1969925,62.1923077 54.2313784,63.2288462 54.2313784,64.5615385 L54.2313784,65.7461538 C54.3791479,67.0788462 53.1969925,68.1153846 51.8670677,68.1153846 L51.8670677,68.1153846 Z" id="Shape" fill="#FDBE6A"></path>
                        <path d="M54.2313784,71.0769231 L37.681203,71.0769231 C37.3856642,71.0769231 37.2378947,70.7807692 37.2378947,70.6326923 L37.2378947,68.7076923 C37.2378947,68.4115385 37.5334336,68.2634615 37.681203,68.2634615 L54.083609,68.2634615 C54.3791479,68.2634615 54.5269173,68.5596154 54.5269173,68.7076923 L54.5269173,70.6326923 C54.6746867,70.7807692 54.3791479,71.0769231 54.2313784,71.0769231 L54.2313784,71.0769231 Z M54.2313784,65.1538462 L37.681203,65.1538462 C37.3856642,65.1538462 37.2378947,64.8576923 37.2378947,64.7096154 L37.2378947,62.7846154 C37.2378947,62.4884615 37.5334336,62.3403846 37.681203,62.3403846 L54.083609,62.3403846 C54.3791479,62.3403846 54.5269173,62.6365385 54.5269173,62.7846154 L54.5269173,64.7096154 C54.6746867,64.8576923 54.3791479,65.1538462 54.2313784,65.1538462 L54.2313784,65.1538462 Z" id="Shape" fill="#FFE2A9"></path>
                        <path d="M52.4581454,69.5961538 C52.9014536,69.5961538 53.1969925,69.8923077 53.1969925,70.3365385 L53.1969925,71.8173077 C53.1969925,72.2615385 52.9014536,72.5576923 52.4581454,72.5576923 L39.1588972,72.5576923 C38.715589,72.5576923 38.4200501,72.2615385 38.4200501,71.8173077 L38.4200501,70.3365385 C38.4200501,69.8923077 38.715589,69.5961538 39.1588972,69.5961538 L52.4581454,69.5961538 L52.4581454,69.5961538 Z M52.4581454,66.6346154 L39.1588972,66.6346154 C37.0901253,66.6346154 35.4646617,68.2634615 35.4646617,70.3365385 L35.4646617,71.8173077 C35.4646617,73.8903846 37.0901253,75.5192308 39.1588972,75.5192308 L52.4581454,75.5192308 C54.5269173,75.5192308 56.152381,73.8903846 56.152381,71.8173077 L56.152381,70.3365385 C56.152381,68.2634615 54.3791479,66.6346154 52.4581454,66.6346154 L52.4581454,66.6346154 Z" id="Shape" fill="#464C63"></path>
                        <path d="M52.4581454,63.6730769 C52.9014536,63.6730769 53.1969925,63.9692308 53.1969925,64.4134615 L53.1969925,65.8942308 C53.1969925,66.3384615 52.9014536,66.6346154 52.4581454,66.6346154 L39.1588972,66.6346154 C38.715589,66.6346154 38.4200501,66.3384615 38.4200501,65.8942308 L38.4200501,64.4134615 C38.4200501,63.9692308 38.715589,63.6730769 39.1588972,63.6730769 L52.4581454,63.6730769 L52.4581454,63.6730769 Z M52.4581454,60.7115385 L39.1588972,60.7115385 C37.0901253,60.7115385 35.4646617,62.3403846 35.4646617,64.4134615 L35.4646617,65.8942308 C35.4646617,67.9673077 37.0901253,69.5961538 39.1588972,69.5961538 L52.4581454,69.5961538 C54.5269173,69.5961538 56.152381,67.9673077 56.152381,65.8942308 L56.152381,64.4134615 C56.152381,62.3403846 54.5269173,60.7115385 52.4581454,60.7115385 L52.4581454,60.7115385 Z" id="Shape" fill="#464C63"></path>
                        <path d="M51.8670677,62.1923077 L39.1588972,62.1923077 C37.8289724,62.1923077 36.7945865,61.1557692 36.7945865,59.8230769 L36.7945865,58.6384615 C36.7945865,57.3057692 37.8289724,56.2692308 39.1588972,56.2692308 L51.8670677,56.2692308 C53.1969925,56.2692308 54.2313784,57.3057692 54.2313784,58.6384615 L54.2313784,59.8230769 C54.3791479,61.1557692 53.1969925,62.1923077 51.8670677,62.1923077 L51.8670677,62.1923077 Z M41.6709774,75.5192308 L28.962807,75.5192308 C27.6328822,75.5192308 26.5984962,74.4826923 26.5984962,73.15 L26.5984962,71.9653846 C26.5984962,70.6326923 27.6328822,69.5961538 28.962807,69.5961538 L41.6709774,69.5961538 C43.0009023,69.5961538 44.0352882,70.6326923 44.0352882,71.9653846 L44.0352882,73.15 C44.0352882,74.4826923 43.0009023,75.5192308 41.6709774,75.5192308 L41.6709774,75.5192308 Z M41.6709774,69.5961538 L28.962807,69.5961538 C27.6328822,69.5961538 26.5984962,68.5596154 26.5984962,67.2269231 L26.5984962,66.0423077 C26.5984962,64.7096154 27.6328822,63.6730769 28.962807,63.6730769 L41.6709774,63.6730769 C43.0009023,63.6730769 44.0352882,64.7096154 44.0352882,66.0423077 L44.0352882,67.2269231 C44.0352882,68.5596154 43.0009023,69.5961538 41.6709774,69.5961538 L41.6709774,69.5961538 Z" id="Shape" fill="#FDBE6A"></path>
                        <path d="M54.2313784,59.2307692 L37.681203,59.2307692 C37.3856642,59.2307692 37.2378947,58.9346154 37.2378947,58.7865385 L37.2378947,56.8615385 C37.2378947,56.5653846 37.5334336,56.4173077 37.681203,56.4173077 L54.083609,56.4173077 C54.3791479,56.4173077 54.5269173,56.7134615 54.5269173,56.8615385 L54.5269173,58.7865385 C54.6746867,59.0826923 54.3791479,59.2307692 54.2313784,59.2307692 L54.2313784,59.2307692 Z M43.7397494,72.5576923 L27.1895739,72.5576923 C26.8940351,72.5576923 26.7462657,72.2615385 26.7462657,72.1134615 L26.7462657,70.1884615 C26.7462657,69.8923077 27.0418045,69.7442308 27.1895739,69.7442308 L43.5919799,69.7442308 C43.8875188,69.7442308 44.0352882,70.0403846 44.0352882,70.1884615 L44.0352882,72.1134615 C44.1830576,72.2615385 44.0352882,72.5576923 43.7397494,72.5576923 L43.7397494,72.5576923 Z M43.7397494,66.6346154 L27.1895739,66.6346154 C26.8940351,66.6346154 26.7462657,66.3384615 26.7462657,66.1903846 L26.7462657,64.2653846 C26.7462657,63.9692308 27.0418045,63.8211538 27.1895739,63.8211538 L43.5919799,63.8211538 C43.8875188,63.8211538 44.0352882,64.1173077 44.0352882,64.2653846 L44.0352882,66.1903846 C44.1830576,66.3384615 44.0352882,66.6346154 43.7397494,66.6346154 L43.7397494,66.6346154 Z" id="Shape" fill="#FFE2A9"></path>
                        <path d="M42.1142857,71.0769231 C42.557594,71.0769231 42.8531328,71.3730769 42.8531328,71.8173077 L42.8531328,73.2980769 C42.8531328,73.7423077 42.557594,74.0384615 42.1142857,74.0384615 L28.8150376,74.0384615 C28.3717293,74.0384615 28.0761905,73.7423077 28.0761905,73.2980769 L28.0761905,71.8173077 C28.0761905,71.3730769 28.3717293,71.0769231 28.8150376,71.0769231 L42.1142857,71.0769231 L42.1142857,71.0769231 Z M42.1142857,68.1153846 L28.8150376,68.1153846 C26.7462657,68.1153846 25.120802,69.7442308 25.120802,71.8173077 L25.120802,73.2980769 C25.120802,75.3711538 26.7462657,77 28.8150376,77 L42.1142857,77 C44.1830576,77 45.8085213,75.3711538 45.8085213,73.2980769 L45.8085213,71.8173077 C45.8085213,69.7442308 44.1830576,68.1153846 42.1142857,68.1153846 L42.1142857,68.1153846 Z" id="Shape" fill="#464C63"></path>
                        <path d="M42.1142857,65.1538462 C42.557594,65.1538462 42.8531328,65.45 42.8531328,65.8942308 L42.8531328,67.375 C42.8531328,67.8192308 42.557594,68.1153846 42.1142857,68.1153846 L28.8150376,68.1153846 C28.3717293,68.1153846 28.0761905,67.8192308 28.0761905,67.375 L28.0761905,65.8942308 C28.0761905,65.45 28.3717293,65.1538462 28.8150376,65.1538462 L42.1142857,65.1538462 L42.1142857,65.1538462 Z M42.1142857,62.1923077 L28.8150376,62.1923077 C26.7462657,62.1923077 25.120802,63.8211538 25.120802,65.8942308 L25.120802,67.375 C25.120802,69.4480769 26.7462657,71.0769231 28.8150376,71.0769231 L42.1142857,71.0769231 C44.1830576,71.0769231 45.8085213,69.4480769 45.8085213,67.375 L45.8085213,65.8942308 C45.8085213,63.8211538 44.1830576,62.1923077 42.1142857,62.1923077 L42.1142857,62.1923077 Z" id="Shape" fill="#464C63"></path>
                        <path d="M52.4581454,57.75 C52.9014536,57.75 53.1969925,58.0461538 53.1969925,58.4903846 L53.1969925,59.9711538 C53.1969925,60.4153846 52.9014536,60.7115385 52.4581454,60.7115385 L39.1588972,60.7115385 C38.715589,60.7115385 38.4200501,60.4153846 38.4200501,59.9711538 L38.4200501,58.4903846 C38.4200501,58.0461538 38.715589,57.75 39.1588972,57.75 L52.4581454,57.75 L52.4581454,57.75 Z M52.4581454,54.7884615 L39.1588972,54.7884615 C37.0901253,54.7884615 35.4646617,56.4173077 35.4646617,58.4903846 L35.4646617,59.9711538 C35.4646617,62.0442308 37.0901253,63.6730769 39.1588972,63.6730769 L52.4581454,63.6730769 C54.5269173,63.6730769 56.152381,62.0442308 56.152381,59.9711538 L56.152381,58.4903846 C56.152381,56.4173077 54.5269173,54.7884615 52.4581454,54.7884615 L52.4581454,54.7884615 Z" id="Shape" fill="#464C63"></path>
                    </g>
                </g>
            </g>
        </g>
    </g>
</svg>