<?xml version="1.0" encoding="UTF-8"?>
<svg width="76px" height="76px" viewBox="0 0 76 76" version="1.1" xmlns="http://www.w3.org/2000/svg" xmlns:xlink="http://www.w3.org/1999/xlink">
    <!-- Generator: Sketch 41 (35326) - http://www.bohemiancoding.com/sketch -->
    <title>1478640413_50X50-02</title>
    <desc>Created with Sketch.</desc>
    <defs></defs>
    <g id="Page-1" stroke="none" stroke-width="1" fill="none" fill-rule="evenodd">
        <g id="API-landing-Copy" transform="translate(-430.000000, -105.000000)">
            <g id="Dropdown-2-Copy" transform="translate(390.000000, 58.000000)">
                <g id="Pro" transform="translate(20.000000, 27.000000)">
                    <g id="1478640413_50X50-02" transform="translate(20.000000, 20.000000)">
                        <g id="Слой_1">
                            <g id="Group">
                                <circle id="Oval" fill="#A8C1E5" cx="37.7567347" cy="38.3836735" r="36.0489796"></circle>
                                <ellipse id="Oval" fill="#8EA6CE" cx="37.7567347" cy="41.8318367" rx="36.0489796" ry="32.6008163"></ellipse>
                                <path d="M71.6114286,22.24 C71.6114286,20.5159184 68.7902041,15.6571429 67.0661224,15.6571429 C61.1102041,15.5004082 53.7436735,14.2465306 45.28,22.5534694 C38.8538776,28.9795918 24.277551,48.1012245 24.277551,48.1012245 L36.0326531,60.4832653 C36.0326531,60.4832653 56.2514286,45.4367347 62.677551,39.0106122 C71.1412245,30.7036735 71.7681633,28.1959184 71.6114286,22.24 L71.6114286,22.24 Z" id="Shape" fill="#698CAF"></path>
                                <path d="M23.0236735,66.9093878 C22.3967347,67.5363265 20.9861224,68.32 19.2620408,69.1036735 C16.7542857,70.2008163 16.9110204,68.7902041 17.3812245,68.1632653 C17.6946939,67.5363265 17.8514286,67.6930612 17.8514286,67.6930612 C17.8514286,67.6930612 11.7387755,60.4832653 14.2465306,57.9755102 C16.7542857,55.4677551 20.6726531,55.4677551 23.1804082,57.9755102 C25.5314286,60.4832653 25.5314286,64.4016327 23.0236735,66.9093878 L23.0236735,66.9093878 Z" id="Shape" fill="#698CAF"></path>
                                <path d="M37.7567347,75.6865306 C17.0677551,75.6865306 0.140408163,58.7591837 0.140408163,38.0702041 C0.140408163,17.3812245 17.0677551,0.453877551 37.7567347,0.453877551 C58.4457143,0.453877551 75.3730612,17.3812245 75.3730612,38.0702041 C75.3730612,58.7591837 58.4457143,75.6865306 37.7567347,75.6865306 L37.7567347,75.6865306 Z M37.7567347,3.58857143 C18.7918367,3.58857143 3.27510204,19.1053061 3.27510204,38.0702041 C3.27510204,57.035102 18.7918367,72.5518367 37.7567347,72.5518367 C56.7216327,72.5518367 72.2383673,57.035102 72.2383673,38.0702041 C72.2383673,19.1053061 56.7216327,3.58857143 37.7567347,3.58857143 L37.7567347,3.58857143 Z" id="Shape" fill="#464C63"></path>
                                <path d="M19.8889796,42.1453061 L20.6726531,40.5779592 L18.635102,41.0481633 L13.3061224,46.3771429 L11.1118367,44.1828571 L14.7167347,36.8163265 C18.3216327,31.8008163 23.9640816,28.9795918 30.2334694,28.8228571 L32.5844898,25.6881633 L30.8604082,25.6881633 C23.3371429,25.6881633 16.2840816,29.2930612 11.8955102,35.4057143 L7.82040816,43.3991837 C7.19346939,44.6530612 7.35020408,46.0636735 8.44734694,47.0040816 L10.7983673,49.355102 C11.4253061,49.9820408 12.0522449,50.1387755 12.8359184,50.1387755 C13.6195918,50.1387755 14.4032653,49.6685714 14.8734694,49.0416327 L20.5159184,43.3991837 L19.8889796,42.1453061 L19.8889796,42.1453061 Z" id="Shape" fill="#698CAF"></path>
                                <path d="M35.2489796,60.1697959 L38.5404082,57.8187755 L37.9134694,59.8563265 L32.2710204,65.1853061 L34.7787755,67.5363265 L42.6155102,63.9314286 C47.9444898,60.3265306 50.922449,54.6840816 51.2359184,48.4146939 L54.5273469,46.0636735 L54.5273469,47.7877551 C54.5273469,55.3110204 50.6089796,62.3640816 44.3395918,66.7526531 L35.8759184,70.8277551 C34.6220408,71.4546939 33.0546939,71.2979592 31.957551,70.2008163 L29.2930612,67.6930612 C28.6661224,67.0661224 28.3526531,66.4391837 28.3526531,65.4987755 C28.3526531,64.5583673 28.8228571,63.9314286 29.4497959,63.3044898 L33.995102,59.0726531 L35.2489796,60.1697959 L35.2489796,60.1697959 Z" id="Shape" fill="#698CAF"></path>
                                <path d="M19.7322449,41.204898 L14.2465306,46.6906122 C13.6195918,47.317551 12.6791837,47.317551 12.0522449,46.6906122 L9.5444898,44.1828571 C9.07428571,43.7126531 8.91755102,42.9289796 9.23102041,42.3020408 L13.1493878,34.6220408 C17.2244898,28.9795918 23.8073469,25.6881633 30.8604082,25.6881633 L33.0546939,25.6881633 L31.957551,37.9134694 L19.7322449,41.204898 L19.7322449,41.204898 Z" id="Shape" fill="#D86F6F"></path>
                                <path d="M19.1053061,41.0481633 L14.56,47.6310204 C13.9330612,48.2579592 12.9926531,48.2579592 12.3657143,47.6310204 L9.85795918,45.1232653 C9.3877551,44.6530612 9.23102041,43.8693878 9.5444898,43.242449 L12.0522449,39.1673469 C16.1273469,33.524898 22.7102041,30.2334694 29.7632653,30.2334694 L32.1142857,30.2334694 L31.0171429,42.4587755 L19.1053061,41.0481633 L19.1053061,41.0481633 Z" id="Shape" fill="#BD5758"></path>
                                <path d="M35.2489796,56.7216327 L29.7632653,62.2073469 C29.1363265,62.8342857 29.1363265,63.7746939 29.7632653,64.4016327 L32.2710204,66.9093878 C32.7412245,67.3795918 33.524898,67.5363265 34.1518367,67.2228571 L41.8318367,63.3044898 C47.4742857,59.2293878 50.7657143,52.6465306 50.7657143,45.5934694 L50.7657143,43.3991837 L38.5404082,44.4963265 L35.2489796,56.7216327 L35.2489796,56.7216327 Z" id="Shape" fill="#BD5758"></path>
                                <path d="M38.8538776,54.6840816 L32.2710204,61.2669388 C31.6440816,61.8938776 30.0767347,61.5804082 30.7036735,62.2073469 L31.3306122,62.8342857 C31.8008163,63.3044898 32.5844898,63.4612245 33.2114286,63.1477551 L40.8914286,59.2293878 C46.5338776,55.1542857 49.8253061,48.5714286 49.8253061,41.5183673 L49.8253061,39.3240816 L37.6,40.4212245 L38.8538776,54.6840816 L38.8538776,54.6840816 Z" id="Shape" fill="#D86F6F"></path>
                                <path d="M72.395102,7.03673469 C72.395102,5.46938776 70.9844898,4.05877551 69.4171429,4.05877551 C63.6179592,3.90204082 50.2955102,4.68571429 42.1453061,12.8359184 C36.0326531,18.9485714 17.3812245,41.8318367 17.3812245,41.8318367 L34.6220408,59.0726531 C34.6220408,59.0726531 57.5053061,40.5779592 63.6179592,34.3085714 C71.924898,26.0016327 72.5518367,12.6791837 72.395102,7.03673469 L72.395102,7.03673469 Z" id="Shape" fill="#FFFFFF"></path>
                                <path d="M70.2008163,18.0081633 C70.2008163,16.2840816 73.6489796,9.3877551 71.924898,9.3877551 C65.9689796,9.23102041 52.1763265,10.0146939 43.8693878,18.4783673 C37.4432653,24.9044898 21.4563265,44.4963265 21.4563265,44.4963265 L34.6220408,56.4081633 C34.6220408,56.4081633 54.8408163,41.3616327 61.2669388,34.9355102 C69.7306122,26.4718367 70.357551,23.9640816 70.2008163,18.0081633 L70.2008163,18.0081633 Z" id="Shape" fill="#E1E1E6"></path>
                                <path d="M70.0440816,6.40979592 C70.2008163,11.5820408 69.5738776,24.5910204 61.8938776,32.2710204 C56.8783673,37.2865306 41.5183673,50.922449 35.562449,55.7812245 L21.1428571,41.5183673 C26.0016327,35.4057143 39.0106122,19.5755102 44.1828571,14.56 C54.2138776,4.3722449 70.0440816,6.40979592 70.0440816,6.40979592 L70.0440816,6.40979592 Z M68.9469388,3.27510204 C62.5208163,3.27510204 49.8253061,4.3722449 41.8318367,12.3657143 C35.562449,18.635102 16.7542857,41.5183673 16.7542857,41.5183673 L35.562449,60.3265306 C35.562449,60.3265306 57.8187755,40.8914286 64.0881633,34.4653061 C72.5518367,26.0016327 73.3355102,12.2089796 73.1787755,6.40979592 C73.0220408,4.68571429 71.4546939,3.11836735 68.9469388,3.27510204 L68.9469388,3.27510204 L68.9469388,3.27510204 Z" id="Shape" fill="#464C63"></path>
                                <path d="M52.6465306,34.3085714 C50.2955102,34.3085714 48.2579592,33.3681633 46.5338776,31.4873469 C44.9665306,29.7632653 44.0261224,27.4122449 44.0261224,24.9044898 C44.0261224,22.3967347 44.9665306,20.0457143 46.5338776,18.3216327 C48.1012245,16.597551 50.2955102,15.5004082 52.6465306,15.5004082 C54.997551,15.5004082 57.1918367,16.4408163 58.7591837,18.3216327 C60.3265306,20.0457143 61.2669388,22.3967347 61.2669388,24.9044898 C61.2669388,27.4122449 60.3265306,29.92 58.7591837,31.6440816 C57.035102,33.3681633 54.997551,34.3085714 52.6465306,34.3085714 L52.6465306,34.3085714 Z M52.6465306,18.635102 C51.0791837,18.635102 49.6685714,19.2620408 48.5714286,20.5159184 C46.3771429,23.0236735 46.3771429,26.9420408 48.5714286,29.4497959 C50.7657143,31.8008163 54.5273469,31.8008163 56.7216327,29.4497959 C57.8187755,28.1959184 58.4457143,26.6285714 58.4457143,25.0612245 C58.4457143,23.4938776 57.8187755,21.7697959 56.7216327,20.6726531 C55.6244898,19.4187755 54.2138776,18.635102 52.6465306,18.635102 L52.6465306,18.635102 Z" id="Shape" fill="#C3C7D1"></path>
                                <ellipse id="Oval" fill="#94CEEE" cx="52.96" cy="23.3371429" rx="7.83673469" ry="7.83673469"></ellipse>
                                <ellipse id="Oval" fill="#64A5D9" cx="52.3330612" cy="25.844898" rx="7.68" ry="6.26938776"></ellipse>
                                <path d="M23.0236735,62.2073469 C20.5159184,64.715102 7.50693878,68.7902041 7.50693878,68.7902041 C7.50693878,68.7902041 11.7387755,55.7812245 14.0897959,53.2734694 C16.597551,50.7657143 20.5159184,50.7657143 23.0236735,53.2734694 C25.5314286,55.7812245 25.5314286,59.6995918 23.0236735,62.2073469 L23.0236735,62.2073469 Z" id="Shape" fill="#FFD77D"></path>
                                <path d="M20.8293878,63.7746939 C18.7918367,65.8122449 7.97714286,69.8873469 7.97714286,69.8873469 C7.97714286,69.8873469 12.0522449,59.2293878 14.0897959,57.035102 C16.1273469,54.997551 19.4187755,54.6840816 21.1428571,56.564898 C22.8669388,58.4457143 22.8669388,61.7371429 20.8293878,63.7746939 L20.8293878,63.7746939 Z" id="Shape" fill="#FDBE6A"></path>
                                <path d="M5.15591837,71.2979592 L6.09632653,68.32 C6.88,66.1257143 10.484898,54.6840816 13.1493878,52.1763265 C14.56,50.7657143 16.597551,49.8253061 18.635102,49.8253061 C20.6726531,49.8253061 22.7102041,50.6089796 24.1208163,52.1763265 C25.5314286,53.5869388 26.4718367,55.6244898 26.4718367,57.6620408 C26.4718367,59.6995918 25.6881633,61.7371429 24.1208163,63.1477551 C21.6130612,65.6555102 10.1714286,69.4171429 7.97714286,70.2008163 L5.15591837,71.2979592 L5.15591837,71.2979592 Z M18.635102,53.1167347 C17.3812245,53.1167347 16.1273469,53.5869388 15.3436735,54.5273469 C14.0897959,55.7812245 11.7387755,61.7371429 10.0146939,66.4391837 C14.7167347,64.715102 20.6726531,62.5208163 21.9265306,61.1102041 C22.8669388,60.1697959 23.3371429,59.0726531 23.3371429,57.8187755 C23.3371429,56.564898 22.8669388,55.3110204 21.9265306,54.5273469 C21.1428571,53.5869388 19.8889796,53.1167347 18.635102,53.1167347 L18.635102,53.1167347 Z" id="Shape" fill="#464C63"></path>
                                <path d="M18.4783673,42.1453061 L20.8293878,39.0106122 L18.7918367,39.4808163 L13.3061224,44.8097959 L11.1118367,42.6155102 L14.7167347,35.2489796 C18.3216327,30.2334694 23.9640816,27.4122449 30.2334694,27.2555102 L32.5844898,24.1208163 L30.8604082,24.1208163 C23.3371429,24.1208163 16.2840816,27.7257143 11.8955102,33.8383673 L7.82040816,41.8318367 C7.19346939,43.0857143 7.35020408,44.4963265 8.44734694,45.4367347 L10.7983673,47.7877551 C11.4253061,48.4146939 12.0522449,48.5714286 12.8359184,48.5714286 C13.6195918,48.5714286 14.4032653,48.1012245 14.8734694,47.4742857 L19.1053061,43.242449 L18.4783673,42.1453061 L18.4783673,42.1453061 Z" id="Shape" fill="#464C63"></path>
                                <path d="M34.9355102,58.602449 L38.0702041,56.2514286 L37.6,58.2889796 L32.2710204,63.6179592 L34.6220408,65.9689796 L41.9885714,62.3640816 C47.0040816,58.7591837 49.8253061,53.1167347 49.9820408,46.8473469 L53.1167347,44.4963265 L53.1167347,46.2204082 C53.1167347,53.7436735 49.5118367,60.7967347 43.3991837,65.1853061 L35.4057143,69.2604082 C34.1518367,69.8873469 32.7412245,69.7306122 31.8008163,68.6334694 L29.2930612,66.1257143 C28.6661224,65.4987755 28.3526531,64.8718367 28.3526531,63.9314286 C28.3526531,62.9910204 28.6661224,62.3640816 29.2930612,61.7371429 L33.524898,57.5053061 L34.9355102,58.602449 L34.9355102,58.602449 Z" id="Shape" fill="#464C63"></path>
                                <ellipse id="Oval" fill="#698CAF" transform="translate(63.275760, 49.281390) rotate(-58.481079) translate(-63.275760, -49.281390) " cx="63.2757603" cy="49.2813897" rx="7.21007021" ry="6.26962627"></ellipse>
                                <ellipse id="Oval" fill="#698CAF" transform="translate(20.791458, 16.601595) rotate(156.034021) translate(-20.791458, -16.601595) " cx="20.791458" cy="16.6015948" rx="5.79926741" ry="5.01558263"></ellipse>
                                <rect id="Rectangle-path" fill="#464C63" transform="translate(32.573362, 45.127278) rotate(45.000000) translate(-32.573362, -45.127278) " x="19.2510404" y="43.5599458" width="26.6446424" height="3.13466382"></rect>
                                <path d="M52.4897959,18.0081633 C55.9379592,18.0081633 58.7591837,20.8293878 58.7591837,24.277551 C58.7591837,27.7257143 55.9379592,30.5469388 52.4897959,30.5469388 C49.0416327,30.5469388 46.2204082,27.7257143 46.2204082,24.277551 C46.2204082,20.8293878 49.0416327,18.0081633 52.4897959,18.0081633 L52.4897959,18.0081633 Z M52.4897959,14.8734694 C47.317551,14.8734694 43.0857143,19.1053061 43.0857143,24.277551 C43.0857143,29.4497959 47.317551,33.6816327 52.4897959,33.6816327 C57.6620408,33.6816327 61.8938776,29.4497959 61.8938776,24.277551 C61.8938776,19.1053061 57.6620408,14.8734694 52.4897959,14.8734694 L52.4897959,14.8734694 L52.4897959,14.8734694 Z" id="Shape" fill="#464C63"></path>
                            </g>
                        </g>
                    </g>
                </g>
            </g>
        </g>
    </g>
</svg>