<?xml version="1.0" encoding="utf-8"?>
<!-- Generator: Adobe Illustrator 21.0.0, SVG Export Plug-In . SVG Version: 6.00 Build 0)  -->
<svg version="1.1" id="图层_1" xmlns="http://www.w3.org/2000/svg" xmlns:xlink="http://www.w3.org/1999/xlink" x="0px" y="0px"
	 viewBox="0 0 1044 409.3" style="enable-background:new 0 0 1044 409.3;" xml:space="preserve">
<style type="text/css">
	.st0{display:none;}
	.st1{fill:#333333;}
</style>
<g id="图层_0_xA0_图像_1_" class="st0">
</g>
<g>
	<path class="st1" d="M223.9,195.8c-3.6,11.4-6.1,20.6-7.8,27.5l-61.3,0.1c-15.4-0.1-27.1-2.3-35.1-6.3c-8-4.1-13.8-9.3-17.3-15.8
		c-5.9,8.4-11.8,17.5-17.8,27.1l-15-26.2c-17,11.2-28.4,20-34.3,26.4l-15.1-22c4-4.7,6-11.5,6-20.4v-36.4H3.6v-25.1h22.9v-22.4h-7
		c-2.8,4.9-5.7,9.5-8.8,14c-2.5-12.7-5.1-24.6-7.8-35.5C14.1,59.5,22.5,35.6,28,8.9l26.2,5.8c-2,7.5-4.1,14.7-6.3,21.7h28.7v24.9
		H39.1c-2.1,5.5-4.4,10.8-6.8,16H69v25.1H52.8v22.4H75v25.1H52.8v33.5c6.4-3.8,12.7-7.9,19.1-12.2c0.4,8.8,0.9,16.7,1.7,23.6
		c4.8-5.8,9.5-11.3,14.1-16.5v-62.4H74.3V87.5h40.8v91.2c6.6,12,20.5,18,41.6,18C172.2,196.7,194.6,196.4,223.9,195.8z M102.8,10.5
		c5.5,15.8,10.7,33.1,15.8,51.9L91.7,70c-4.4-18.5-9.4-36-14.9-52.4L102.8,10.5z M123,143h39.9v-20h-39.1V99.3
		c3.8-10.7,8-24.5,12.5-41.5h-14.1V32H143l5.7-23.3l26.2,3.8c-1.8,6.7-3.6,13.2-5.4,19.5h49.4v25.7h-56.6l-11.8,39.5h12.4V68h25.7
		v29.3h28.2V123h-28.2v20H221v25.7h-32.4v24h-25.7v-24H123V143z"/>
	<path class="st1" d="M279.2,185.8h82.3V11.2h36v61.5h82.1v31.7h-82.1v81.5H494v31.3H279.2V185.8z"/>
	<path class="st1" d="M549.9,93h94.5V82h-74.1V24.5h74.1v-16h29.3v16h74.1V82h-74.1v11h95v23.1H549.9V93z M644.9,155.4h29.5
		c-0.6,7.8-1.8,14.8-3.6,21.1c22.5,6.1,53.1,15.5,91.9,28l-13.5,25.3c-27.3-10.4-57.2-20.7-89.8-31c-14.3,16.3-45.6,26.5-94,30.5
		l-11.8-28c34.3-2.1,57.9-6.1,70.9-12C637.5,183.5,644.3,172.1,644.9,155.4z M574.7,184.7V127h169.1v56.4h-29.7v-34.6H604.5v36
		L574.7,184.7L574.7,184.7z M598.2,59.5h46.2V46.9h-46.2V59.5z M719.9,46.9h-46.2v12.7h46.2V46.9z"/>
	<path class="st1" d="M890.9,102.6c13.2,15.1,19.8,35.1,19.8,59.9c0,12.9-3.6,22.3-10.7,28.3c-7.1,6-18.8,9-35.1,9
		c-1-12.1-2.8-23.1-5.3-32.8c3.4,0.4,6.4,0.7,8.9,0.7c8.6,0,12.9-3.6,12.9-10.7c0-18.8-6.6-35.8-19.8-51
		c5.8-19.4,11.2-39.9,16.4-61.5h-19.3v184.2h-28.9v-210H908V40C902.8,60,897.2,80.8,890.9,102.6z M1032.1,227.8h-30v-14.6h-55.5
		v14.6h-30V22.3H1032L1032.1,227.8L1032.1,227.8z M946.6,103.5h55.5V50.2h-55.5V103.5z M946.6,185.2h55.5v-53.7h-55.5V185.2z"/>
</g>
<g>
	<path d="M9.7,347.5h17.1v-58.4h29.1c2.1-6.6,3.4-11.1,4.1-13.6l6.8,1.2c-1,3.8-2.3,7.9-3.9,12.5H107v50.7
		c3.6-2.8,9.1-7.1,16.2-13.1l4.7,4.8c-7.2,5.7-14.1,11.1-20.9,16v27.4c0.3,11.3-5.2,17-16.5,17c-4.8,0.2-12,0.2-21.6,0.2
		c-0.2-2.3-0.6-4.7-1.4-7.1c2.5,0.2,7.9,0.3,16,0.2c1.9,0,3.3,0,4.2,0c8.8,0.5,13-3.3,12.6-11.2v-20.6h-2
		c-23.7,16.5-51.7,29.9-83.8,40.2c-1-1.9-2.4-4-4-6.3c31.7-9.7,57.3-21,76.9-33.9H9.7V347.5z M33.5,295v13.5h66.8V295H33.5z
		 M33.5,314.3v13.6h66.8v-13.6H33.5z M96.3,347.5c0.5-0.3,1.1-0.8,2-1.4c0.9-0.6,1.5-1.1,2-1.4v-11.1H33.5v13.8H96.3z"/>
	<path d="M163,340.6c-1.3-2.9-2.5-5.3-3.6-7.1c12-16.1,21.5-34.8,28.5-56.3l6.9,2c-3.9,11-8.3,21.4-13.2,31.1v83.9h-6.5V322
		C171.8,327.7,167.8,333.9,163,340.6z M195.1,330.4c-1.7-1.9-3.4-3.6-5.2-5.2c14.1-12,24.4-26.5,31.1-43.4l6.5,2.5
		C220.2,302,209.4,317.3,195.1,330.4z M202.5,329.9h58.7c-0.4,16.4-1,31.1-1.9,43.9c-0.3,11.9-6.9,17.9-19.6,18
		c-2,0.1-4.1,0.1-6.4,0.2c-1.1,0-2.3,0.1-3.6,0.1c-1.1,0-2.7,0-4.9,0c-0.4-2.2-1-4.5-1.9-7.1c5,0.2,10.2,0.4,15.9,0.4
		c8.9,0.2,13.5-4,13.9-12.7c0.8-12.1,1.4-24.3,1.6-36.7h-30.2c0.4,24.7-9.1,44.2-28.5,58.4c-1.6-2.1-3.3-3.9-5-5.5
		c18.5-12.9,27.4-30.5,26.8-52.8h-14.9V329.9z M239.2,279.3l6-2.3c7.4,19.5,18.6,34.3,33.6,44.5c-1.8,1.7-3.5,3.7-5.2,6
		C257.3,314.8,245.8,298.7,239.2,279.3z"/>
	<path d="M310.2,316.8c7.4-11.3,13.2-24.8,17.3-40.7l6.3,1.5c-2.2,7.5-4.2,13.5-5.9,17.9h21v5.9h-23.4c-2.4,5.8-5.8,12.5-10.3,20
		C313.7,319.7,312,318.2,310.2,316.8z M311,341.4h15.9v-17.8h-7.8v-5.9H345v5.9h-11.9v17.8h16.1v5.9h-16.1v29.8l14.3-13.8l1.4,7.1
		c-5.9,5.4-11.2,10.3-15.7,14.7c-1.3,1.3-2.9,3-4.8,5.3l-4.7-5.2c1.3-1.7,2.1-3.4,2.6-5c0.5-1.6,0.7-3.6,0.7-6.2v-26.7H311V341.4z
		 M394.7,384.1c5.8,0.1,11.7,0.2,17.6,0.2c5.9,0,11.8-0.1,17.7-0.2c-1,2.3-1.7,4.5-2.2,6.7c-8.8,0.1-20.1-0.1-34-0.6
		c-13,0.1-23-4.7-29.9-14.2c-4.1,4.5-8.4,10.1-12.7,16.8l-5.2-4.6c2.9-3.8,7.3-9.1,13.2-16.1c0.8-0.9,1.4-1.6,1.7-2v-43.7h-9.8v-5.9
		h16v49.6C373.4,379.6,382.5,384.2,394.7,384.1z M363.5,304.3c-2.1-6.9-5-15.1-8.5-24.8l5.7-1.8c4,10.1,7.1,18.3,9.2,24.6
		L363.5,304.3z M375.3,353.8h27v-18.4h-23.2v-7.3c3.7-8.5,7.3-18.4,10.7-29.6h-12.4v-5.9h14.2c1.6-5.7,3.2-11.4,4.5-17.3l6.5,1.3
		c-1.8,6.3-3.3,11.6-4.6,16h29.4v5.9h-31.3c-3.6,11.2-7.2,21.5-10.8,31h17v-22.2h6.1v22.2h17v5.9h-17v18.4h20.4v6h-20.4v19.4h-6.1
		v-19.4h-27V353.8z"/>
	<path d="M462.3,383.7h14.7v-39.5h88.9v39.5h14.7v6.1H462.3V383.7z M472.3,283.5h6.3v48.3h-6.3V283.5z M483.5,350.2v33.5h21.1v-33.5
		H483.5z M505.9,276.3v61.3h-6.4v-61.3H505.9z M515.5,329.3c-1.7-1.5-3.4-2.9-5.3-4.2c11.2-14,20.2-30.5,26.8-49.6l6.5,2
		c-3,7.8-5.6,13.9-7.8,18.3h43.9v6.1h-46.9C527.5,311.7,521.8,320.8,515.5,329.3z M510.9,350.2v33.5H532v-33.5H510.9z M537.9,314.3
		l4.3-4.5c8.2,6.2,16.3,12.8,24.4,19.7l-4.8,4.9C553.7,327.2,545.8,320.5,537.9,314.3z M559.5,350.2h-21.1v33.5h21.1V350.2z"/>
	<path d="M613.7,348.8l-1.2-7c4.1-0.9,10-2.3,17.6-4.2v-31.2h-16.3v-6h16.3v-24.3h6.6v24.3h12.7v6h-12.7v29.4
		c5.8-1.5,10.2-2.7,13.4-3.6c0.1,2.7,0.3,4.9,0.6,6.6c-1.4,0.4-3.6,0.9-6.6,1.7c-3.2,0.9-5.7,1.5-7.4,1.9v36.7
		c0.4,9.3-3.7,13.9-12.2,13.8c-2.3,0.1-5.8,0.1-10.6,0.1c-0.1-1.3-0.5-3.1-1-5.5c-0.2-0.7-0.3-1.1-0.4-1.5c3.9,0.2,7.5,0.4,10.8,0.4
		c4.6,0.2,6.8-2.3,6.7-7.3v-35C624.8,345.6,619.3,347.2,613.7,348.8z M658.7,343.6h67v5.8h-30.3v33.7h36.1v5.9h-81v-5.9h38.2v-33.7
		h-30V343.6z M654.9,333.3c9.3-6.3,18-13.3,26.2-20.9l4.8,4.6c-7.7,7.1-16.5,14.2-26.4,21.3C658.1,336.5,656.5,334.8,654.9,333.3z
		 M657,294.7h70.8v20.4h-6.5v-14.4h-57.8v14.4H657V294.7z M683.6,278.6l5.5-2.9c3,4.3,6.2,9.2,9.6,14.9l-5.8,3.3
		C689.9,288.5,686.7,283.4,683.6,278.6z M699,316.7l4.3-4.5c9.6,7.1,18.4,14.1,26.4,20.9l-4.7,5.2C716.7,330.8,708,323.6,699,316.7z
		"/>
	<path d="M770.8,282h105.9v6.5H827v54.3h55.1v6.7H827v45.3h-7v-45.3h-54.9v-6.7H820v-54.3h-49.2V282z M777.5,303.3l5.6-3.6
		c7.3,9.1,14.6,18.7,22.1,28.9l-6.1,4.1C793.1,323.9,785.9,314.1,777.5,303.3z M845.4,333.3l-5.5-4.5c8.5-9.1,16.3-18.8,23.4-29.2
		l6.2,3.9C862.1,313.2,854.1,323.2,845.4,333.3z"/>
	<path d="M1028.2,332.8c-4.2-4.4-7.6-7.8-10-10.3c-36.2,0.9-64.4,1.9-84.5,3c-4.8,0.2-8.8,0.7-11.9,1.4l-3.3-7.3
		c3.4-1.3,6.5-3.2,9.2-5.5c14.4-12.1,27.2-25,38.4-38.8l7,3.9c-11.3,12.6-25,25.8-40.9,39.6c9.7-0.2,25.5-0.7,47.4-1.4
		c10.5-0.3,21.3-0.7,32.4-1c-4.3-4.4-10.8-10.8-19.5-19.4l5.5-4.1c10.9,10.2,23,22,36.1,35.3L1028.2,332.8z M1017,341v53.4h-6.8
		v-8.2h-71.6v8.2h-6.8V341H1017z M938.6,347.3v32.4h71.6v-32.4H938.6z"/>
</g>
</svg>
